PathFileType	3	(X/Y/Z)	running_1__view1_aligned.trc
DataRate	CameraRate	NumFrames	NumMarkers	Units	OrigDataRate	OrigDataStartFrame	OrigNumFrames
100.0	100.0	6	19	mm	100.0	5024	6401
Frame#	Time	pelvis			neck			head			hip_left			hip_right			knee_left			knee_right			ankle_left			ankle_right			heel_left			heel_right			toe_left			toe_right			shoulder_left			shoulder_right			elbow_left			elbow_right			wrist_left			wrist_right			
		X1	Y1	Z1	X2	Y2	Z2	X3	Y3	Z3	X4	Y4	Z4	X5	Y5	Z5	X6	Y6	Z6	X7	Y7	Z7	X8	Y8	Z8	X9	Y9	Z9	X10	Y10	Z10	X11	Y11	Z11	X12	Y12	Z12	X13	Y13	Z13	X14	Y14	Z14	X15	Y15	Z15	X16	Y16	Z16	X17	Y17	Z17	X18	Y18	Z18	X19	Y19	Z19	
5024	50.23000	29.071363	937.850147	87.574182	-1.077707	1468.392476	254.436508	5.217424	1551.277460	401.557166	105.388377	939.181135	82.823291	-47.245650	936.519158	92.325073	112.620779	514.060423	87.030809	-74.178372	541.950678	281.672350	81.074014	248.163533	-218.834211	-92.591884	181.819616	175.088710	71.167261	241.884765	-273.595226	-95.183603	140.179221	137.683682	90.151292	73.824323	-160.962970	-86.022070	113.405195	343.086131	174.922515	1457.812836	223.914800	-166.178400	1422.384030	190.308359	287.114648	1219.020864	165.006585	-272.001008	1210.292432	45.410762	165.094996	1149.034165	352.641556	-253.643582	1011.513743	197.483415
5025	50.24000	26.810991	939.594918	89.970091	-3.729146	1470.430572	256.443443	3.154459	1552.928210	403.333149	103.194955	940.868376	85.258824	-49.572973	938.321460	94.681359	111.642901	515.815811	90.940548	-77.029896	542.737798	278.048840	81.012547	250.432026	-212.319509	-94.502851	179.035195	173.176544	71.288254	244.203815	-266.774871	-97.021931	136.885678	135.687706	89.214098	76.422573	-155.092704	-87.158417	110.608422	342.677753	171.616442	1460.738527	224.862836	-168.814155	1423.826597	194.000112	284.010655	1224.892039	162.109940	-274.488928	1210.713674	52.552817	164.941976	1151.865992	348.013162	-254.179180	1013.955322	204.228152
5026	50.25000	24.550618	941.339690	92.365999	-6.380585	1472.468668	258.450378	1.091493	1554.578959	405.109132	101.001534	942.555617	87.694356	-51.900296	940.123762	97.037644	110.665023	517.571198	94.850288	-79.881419	543.524919	274.425330	80.951080	252.700519	-205.804807	-96.413818	176.250773	171.264379	71.409248	246.522864	-259.954515	-98.860260	133.592135	133.691730	88.276904	79.020822	-149.222438	-88.294763	107.811648	342.269376	168.310368	1463.664218	225.810872	-171.449911	1425.269163	197.691865	280.906663	1230.763215	159.213294	-276.976848	1211.134916	59.694872	164.788956	1154.697819	343.384767	-254.714778	1016.396901	210.972889
5027	50.26000	22.290245	943.084461	94.761908	-9.032024	1474.506764	260.457314	-0.971472	1556.229709	406.885115	98.808113	944.242858	90.129888	-54.227619	941.926065	99.393930	109.687145	519.326586	98.760027	-82.732942	544.312039	270.801821	80.889613	254.969012	-199.290106	-98.324785	173.466351	169.352214	71.530241	248.841913	-253.134159	-100.698588	130.298592	131.695754	87.339709	81.619071	-143.352172	-89.431110	105.014875	341.860998	165.004294	1466.589909	226.758909	-174.085666	1426.711730	201.383618	277.802671	1236.634390	156.316649	-279.464767	1211.556159	66.836928	164.635935	1157.529645	338.756372	-255.250375	1018.838479	217.717625
5028	50.27000	20.029873	944.829233	97.157816	-11.683463	1476.544860	262.464249	-3.034438	1557.880458	408.661098	96.614692	945.930099	92.565420	-56.554942	943.728367	101.750216	108.709266	521.081974	102.669767	-85.584466	545.099159	267.178311	80.828146	257.237505	-192.775404	-100.235753	170.681929	167.440048	71.651235	251.160963	-246.313803	-102.536917	127.005049	129.699778	86.402515	84.217321	-137.481906	-90.567457	102.218102	341.452620	161.698221	1469.515600	227.706945	-176.721421	1428.154297	205.075372	274.698679	1242.505566	153.420003	-281.952687	1211.977401	73.978983	164.482915	1160.361472	334.127977	-255.785973	1021.280058	224.462362
5029	50.28000	17.769500	946.574005	99.553725	-14.334902	1478.582956	264.471184	-5.097403	1559.531208	410.437081	94.421271	947.617340	95.000953	-58.882265	945.530669	104.106502	107.731388	522.837361	106.579506	-88.435989	545.886279	263.554801	80.766679	259.505998	-186.260703	-102.146720	167.897508	165.527883	71.772228	253.480012	-239.493448	-104.375245	123.711506	127.703802	85.465321	86.815570	-131.611640	-91.703803	99.421329	341.044242	158.392147	1472.441291	228.654981	-179.357176	1429.596864	208.767125	271.594686	1248.376742	150.523358	-284.440607	1212.398643	81.121038	164.329895	1163.193299	329.499582	-256.321570	1023.721637	231.207099
